{"title":"[MARATHI] Nach Re Mora - Animation Balgeet - Kids [TMB]","uid":8110941,"size":21229740,"categoryP":"video","categoryS":"other","magnet":"?xt=urn:btih:4178b2301bbc34ebce35d33fa30fa088df6e01e8&amp;dn=%5BMARATHI%5D+Nach+Re+Mora+-+Animation+Balgeet+-+Kids+%5BTMB%5D&amp;tr=udp%3A%2F%2Ftracker.openbittorrent.com%3A80&amp;tr=udp%3A%2F%2Fopen.demonii.com%3A1337&amp;tr=udp%3A%2F%2Ftracker.coppersurfer.tk%3A6969&amp;tr=udp%3A%2F%2Fexodus.desync.com%3A6969","seeders":1,"leechers":0,"uploader":"SJonam","files":1,"time":1360182799,"description":" &lt;a href=&quot;http://i26.photobucket.com/albums/c119/manojb/good.gif&quot; rel=&quot;nofollow&quot; target=&quot;_NEW&quot;&gt;http://i26.photobucket.com/albums/c119/manojb/good.gif&lt;/a&gt; &lt;a href=&quot;\nhttp://i26.photobucket.com/albums/c119/manojb/vlcsnap-2013-02-07-00h14m16s163.png&quot; rel=&quot;nofollow&quot; target=&quot;_NEW&quot;&gt;\nhttp://i26.photobucket.com/albums/c119/manojb/vlcsnap-2013-02-07-00h14m16s163.png&lt;/a&gt; &lt;a href=&quot;\nhttp://i26.photobucket.com/albums/c119/manojb/vlcsnap-2013-02-07-00h14m25s250.png&quot; rel=&quot;nofollow&quot; target=&quot;_NEW&quot;&gt;\nhttp://i26.photobucket.com/albums/c119/manojb/vlcsnap-2013-02-07-00h14m25s250.png&lt;/a&gt; &lt;a href=&quot;\nhttp://i26.photobucket.com/albums/c119/manojb/vlcsnap-2013-02-07-00h14m31s56.png&quot; rel=&quot;nofollow&quot; target=&quot;_NEW&quot;&gt;\nhttp://i26.photobucket.com/albums/c119/manojb/vlcsnap-2013-02-07-00h14m31s56.png&lt;/a&gt; &lt;a href=&quot;\nhttp://i26.photobucket.com/albums/c119/manojb/vlcsnap-2013-02-07-00h14m38s124.png&quot; rel=&quot;nofollow&quot; target=&quot;_NEW&quot;&gt;\nhttp://i26.photobucket.com/albums/c119/manojb/vlcsnap-2013-02-07-00h14m38s124.png&lt;/a&gt;\n\nInfo - \nWatch Marathi Balgeet - Nacha Re Mora - Kids - Animation Poem. Listen to this entertaining song where a peacock is beautifully dancing and showing its talent.\n\nMedia Info - \nGeneral\nComplete name                  : Nach Re Mora - Animated Balgeet - Kids [TMB].avi\nFormat                         : AVI\nFormat/Info                    : Audio Video Interleave\nFile size                      : 20.2 MiB\nDuration                       : 3mn 13s\nOverall bit rate               : 876 Kbps\n\nVideo\nID                             : 0\nFormat                         : MPEG-4 Visual\nFormat profile                 : Advanced Simple@L1\nFormat settings, BVOP          : 2\nFormat settings, QPel          : No\nFormat settings, GMC           : No warppoints\nFormat settings, Matrix        : Default (H.263)\nCodec ID                       : DIVX\nCodec ID/Info                  : Project Mayo\nCodec ID/Hint                  : DivX 4\nDuration                       : 3mn 13s\nBit rate                       : 726 Kbps\nWidth                          : 468 pixels\nHeight                         : 360 pixels\nDisplay aspect ratio           : 4:3\nFrame rate                     : 25.000 fps\nColor space                    : YUV\nChroma subsampling             : 4:2:0\nBit depth                      : 8 bits\nScan type                      : Progressive\nCompression mode               : Lossy\nBits/(Pixel*Frame)             : 0.172\nStream size                    : 16.8 MiB (83%)\nWriting library                : Lavc54.59.100\n\nAudio\nID                             : 1\nFormat                         : AC-3\nFormat/Info                    : Audio Coding 3\nMode extension                 : CM (complete main)\nFormat settings, Endianness    : Big\nCodec ID                       : 2000\nDuration                       : 3mn 13s\nSource duration                : 3mn 13s\nBit rate mode                  : Constant\nBit rate                       : 128 Kbps\nChannel(s)                     : 2 channels\nChannel positions              : Front: L R\nSampling rate                  : 44.1 KHz\nBit depth                      : 16 bits\nCompression mode               : Lossy\nStream size                    : 2.96 MiB (15%)\nAlignment                      : Aligned on interleaves\nInterleave, duration           : 35 ms (0.87 video frame)\n\nRipper : Manojvb\n\nExtreme 24x7 Seeding\n\n\nEnjoy TMB Release!","torrent":{"xt":"urn:btih:4178b2301bbc34ebce35d33fa30fa088df6e01e8","amp;dn":"%5BMARATHI%5D+Nach+Re+Mora+-+Animation+Balgeet+-+Kids+%5BTMB%5D","amp;tr":["udp%3A%2F%2Ftracker.openbittorrent.com%3A80","udp%3A%2F%2Fopen.demonii.com%3A1337","udp%3A%2F%2Ftracker.coppersurfer.tk%3A6969","udp%3A%2F%2Fexodus.desync.com%3A6969"],"infoHash":"4178b2301bbc34ebce35d33fa30fa088df6e01e8","infoHashBuffer":{"type":"Buffer","data":[65,120,178,48,27,188,52,235,206,53,211,63,163,15,160,136,223,110,1,232]},"announce":[],"urlList":[]}}